<svg id="Layer_1" enable-background="new 0 0 511.619 511.619" height="512" viewBox="0 0 511.619 511.619" width="512" xmlns="http://www.w3.org/2000/svg"><g><path d="m133.856 402.477v89.251c0 10.985 8.905 19.89 19.89 19.89h198.126c10.985 0 19.89-8.905 19.89-19.89v-89.003z" fill="#bc705d"/><path d="m253.173 511.619h98.7c10.985 0 19.89-8.905 19.89-19.89v-89.003l-118.59-.124z" fill="#8c4537"/><path d="m39.173 193.936c-21.275 0-38.521 17.246-38.521 38.521 0 21.275 17.246 38.521 38.521 38.521h31.599l84.961-77.042z" fill="#bc705d"/><path d="m472.446 193.936h-31.599l-66.665 77.042h98.264c21.275 0 38.521-17.247 38.521-38.521 0-21.275-17.247-38.521-38.521-38.521z" fill="#8c4537"/><path d="m392.069 120.183-19.161-67.2-232.705 30.297c-7.125 0-12.9 5.776-12.9 12.9l-8.355 22.212c0 19.98-10.591 38.463-27.829 48.565l-20.376 25.193v98.456c0 89.643 72.67 162.313 162.313 162.313h45.474c89.643 0 162.313-72.67 162.313-162.313v-96.23l-26.426-29.819c-17.426-10.604-22.348-23.974-22.348-44.374z" fill="#d38d7f"/><path d="m392.069 120.183-19.161-67.2-120.032 30.297v369.64h25.654c89.643 0 162.313-72.67 162.313-162.313v-96.23l-26.426-29.819c-17.425-10.605-22.348-23.975-22.348-44.375z" fill="#bc705d"/><path d="m440.844 103.395c0-6.883-.679-13.608-1.962-20.115l-65.974-30.297v67.2c0 20.399 10.636 39.322 28.062 49.927l39.874 24.266z" fill="#0f4c46"/><g fill="#093330"><path d="m337.449 0h-161.192c-58.033 0-105.514 47.481-105.514 105.513v86.637l28.731-16.838c17.238-10.102 27.829-28.585 27.829-48.565v-7.591c0-19.814 16.062-35.876 35.876-35.876h275.702c-9.361-47.474-51.212-83.28-101.432-83.28z"/><path d="m252.858 394.409c-8.775 0-15.888 7.114-15.888 15.888v42.623h31.777v-42.623c0-8.775-7.114-15.888-15.889-15.888z"/><circle cx="161.476" cy="206.536" r="17.305"/></g><circle cx="346.651" cy="206.536" fill="#001200" r="17.305"/><g><path d="m253.407 365.586c-20.998 0-40.851-7.929-55.901-22.327-6.341-6.066-6.563-16.123-.498-22.464 6.066-6.341 16.123-6.564 22.464-.498 6.444 6.164 17.561 13.512 33.934 13.512 18.212 0 29.402-8.358 34.451-13.341 6.246-6.163 16.306-6.097 22.469.149s6.097 16.305-.149 22.469c-14.703 14.509-34.864 22.5-56.77 22.5z" fill="#d92a4d"/></g><path d="m252.876 0v83.28h186.006c-9.362-47.474-51.213-83.28-101.433-83.28z" fill="#001200"/><path d="m287.858 320.468c-5.049 4.982-16.239 13.341-34.451 13.341-.18 0-.351-.013-.53-.015v31.779c.177.001.353.013.531.013 21.906 0 42.067-7.99 56.77-22.499 6.246-6.163 6.313-16.223.149-22.469-6.163-6.247-16.224-6.313-22.469-.15z" fill="#a31b37"/><path d="m252.876 394.409v58.51h15.871v-42.623c0-8.769-7.104-15.878-15.871-15.887z" fill="#001200"/></g></svg>